<svg width="16" height="16" viewBox="0 0 16 16" fill="none" xmlns="http://www.w3.org/2000/svg">
<path d="M11 7L10 3H6L5 7L3 8V11H13V8L11 7Z" stroke="#5A5F6B"/>
<path d="M10 12C10 12.2626 9.94827 12.5227 9.84776 12.7654C9.74725 13.008 9.59993 13.2285 9.41421 13.4142C9.2285 13.5999 9.00802 13.7472 8.76537 13.8478C8.52272 13.9483 8.26264 14 8 14C7.73736 14 7.47728 13.9483 7.23463 13.8478C6.99198 13.7472 6.7715 13.5999 6.58579 13.4142C6.40007 13.2285 6.25275 13.008 6.15224 12.7654C6.05173 12.5227 6 12.2626 6 12" stroke="#5A5F6B" stroke-linecap="square"/>
</svg>
