<svg width="16" height="16" viewBox="0 0 16 16" fill="none" xmlns="http://www.w3.org/2000/svg">
<path d="M13 11C13 9.89543 12.1046 9 11 9C9.89543 9 9 9.89543 9 11" stroke="#5A5F6B"/>
<path d="M9 11V12C9 13.1046 9.89543 14 11 14C12.1046 14 13 13.1046 13 12V11" stroke="#5A5F6B"/>
<path d="M3 10L5 10M5 10V14M5 10V8.5M5 14H3M5 14H7" stroke="#5A5F6B"/>
<path d="M9 3L11 3M11 3V7M11 3V1.5M11 7H9M11 7H13" stroke="#5A5F6B"/>
<path d="M7 4C7 2.89543 6.10457 2 5 2C3.89543 2 3 2.89543 3 4" stroke="#5A5F6B"/>
<path d="M3 4V5C3 6.10457 3.89543 7 5 7C6.10457 7 7 6.10457 7 5V4" stroke="#5A5F6B"/>
</svg>
