<svg width="16" height="16" viewBox="0 0 16 16" fill="none" xmlns="http://www.w3.org/2000/svg">
<path d="M14 8C14 11.3137 11.3137 14 8 14C4.68629 14 2 11.3137 2 8C2 4.68629 4.68629 2 8 2" stroke="#5A5F6B"/>
<path d="M10.8284 9C10.6807 9.4179 10.4407 9.80192 10.1213 10.1213C9.55871 10.6839 8.79565 11 8 11C7.20435 11 6.44129 10.6839 5.87868 10.1213C5.55927 9.80192 5.31933 9.4179 5.17157 9" stroke="#5A5F6B"/>
<circle cx="6" cy="6.5" r="0.5" fill="#5A5F6B" stroke="#5A5F6B" stroke-width="0.5"/>
<circle cx="10" cy="6.5" r="0.5" fill="#5A5F6B" stroke="#5A5F6B" stroke-width="0.5"/>
<path d="M12.5 1.5V5.5" stroke="#5A5F6B"/>
<path d="M10.5 3.5H14.5" stroke="#5A5F6B"/>
</svg>
