<svg width="16" height="16" viewBox="0 0 16 16" fill="none" xmlns="http://www.w3.org/2000/svg">
<path d="M13.3535 3.35352L3.35352 13.3535L2.64648 12.6465L12.6465 2.64648L13.3535 3.35352Z" fill="#5A5F6B"/>
<path d="M3 13L13 3" stroke="#5A5F6B"/>
<path d="M12.874 5.41797C13.4003 6.01012 13.793 6.60046 14.0547 7.04199C14.1857 7.26315 14.2848 7.44857 14.3516 7.58008C14.385 7.64588 14.4112 7.69851 14.4287 7.73535C14.4373 7.75347 14.4435 7.76802 14.4482 7.77832C14.4506 7.78349 14.4527 7.78795 14.4541 7.79102C14.4548 7.79255 14.4556 7.79393 14.4561 7.79492V7.7959L14.457 7.79688L14.5469 8L14.457 8.20312L14.4541 8.20898C14.4527 8.21205 14.4506 8.21651 14.4482 8.22168C14.4435 8.23198 14.4373 8.24653 14.4287 8.26465C14.4112 8.30149 14.385 8.35412 14.3516 8.41992C14.2848 8.55143 14.1857 8.73685 14.0547 8.95801C13.793 9.39954 13.4003 9.98988 12.874 10.582C11.8273 11.7596 10.2021 13 8 13C7.11884 13 6.33109 12.7991 5.63477 12.4854L6.40137 11.7188C6.89092 11.8952 7.42353 12 8 12C9.79777 12 11.1727 10.9904 12.126 9.91797C12.5995 9.38528 12.957 8.85038 13.1953 8.44824C13.3031 8.26635 13.3855 8.11246 13.4434 8C13.3855 7.88754 13.3031 7.73365 13.1953 7.55176C12.957 7.14962 12.5995 6.61472 12.126 6.08203C12.1122 6.06657 12.0979 6.05157 12.084 6.03613L12.792 5.32812C12.8195 5.35829 12.8473 5.38787 12.874 5.41797ZM8 3C8.88066 3 9.66823 3.20025 10.3643 3.51367L9.59766 4.28027C9.10843 4.10413 8.576 4 8 4C6.20223 4 4.82733 5.00965 3.87402 6.08203C3.40052 6.61472 3.04299 7.14962 2.80469 7.55176C2.69678 7.73386 2.61356 7.88751 2.55566 8C2.61356 8.11249 2.69678 8.26614 2.80469 8.44824C3.04299 8.85038 3.40052 9.38528 3.87402 9.91797C3.88746 9.93309 3.90143 9.9478 3.91504 9.96289L3.20703 10.6709C3.17984 10.6411 3.15243 10.6118 3.12598 10.582C2.59966 9.98988 2.20697 9.39954 1.94531 8.95801C1.81425 8.73685 1.71524 8.55143 1.64844 8.41992C1.61502 8.35412 1.58875 8.30149 1.57129 8.26465C1.5627 8.24653 1.55649 8.23198 1.55176 8.22168C1.54939 8.21651 1.54728 8.21205 1.5459 8.20898C1.54521 8.20745 1.54439 8.20607 1.54395 8.20508V8.2041L1.54297 8.20312L1.45312 8L1.54297 7.79688L1.54395 7.7959V7.79492C1.54439 7.79393 1.54521 7.79255 1.5459 7.79102C1.54728 7.78795 1.54939 7.78349 1.55176 7.77832C1.55649 7.76802 1.5627 7.75347 1.57129 7.73535C1.58875 7.69851 1.61502 7.64588 1.64844 7.58008C1.71524 7.44857 1.81425 7.26315 1.94531 7.04199C2.20697 6.60046 2.59966 6.01012 3.12598 5.41797C4.17267 4.24044 5.7979 3 8 3Z" fill="#5A5F6B"/>
<path d="M10.4717 7.64844C10.4879 7.76347 10.5 7.88049 10.5 8C10.5 9.38071 9.38071 10.5 8 10.5C7.88049 10.5 7.76347 10.4879 7.64844 10.4717L10.4717 7.64844ZM8 5.5C8.11913 5.5 8.2359 5.51123 8.35059 5.52734L5.52734 8.35059C5.51123 8.2359 5.5 8.11913 5.5 8C5.5 6.61929 6.61929 5.5 8 5.5Z" fill="#5A5F6B"/>
</svg>
