<svg width="106" height="16" viewBox="0 0 106 16" fill="none" xmlns="http://www.w3.org/2000/svg">
<path d="M39.2674 13.7148H37.4219V15.7954H43.7031V13.7148H41.8879V7.01254H45.4496V4.61914H39.2674V13.7148Z" fill="white"/>
<path d="M46.6309 12.8172C46.6309 10.7169 48.0487 9.62511 50.6691 9.23831L52.6071 8.96241C53.3002 8.86076 53.6368 8.63633 53.6368 8.06472C53.6368 6.98353 52.8922 6.37231 51.6078 6.37231C50.2414 6.37231 49.518 7.1063 49.3028 8.14656L46.7734 7.76901C47.1616 5.9129 48.7008 4.41455 51.6064 4.41455C54.512 4.41455 56.2665 6.01587 56.2665 8.56505V15.7941H53.687V13.7241H53.5853C53.2289 14.9479 52.0157 15.9974 50.1701 15.9974C48.0183 15.9974 46.6322 14.7327 46.6322 12.8159L46.6309 12.8172ZM53.6355 10.9109V10.5439L51.2091 10.9928C49.955 11.2278 49.4045 11.7571 49.4045 12.5624C49.4045 13.4601 50.0672 13.9895 51.0771 13.9895C52.7906 13.9895 53.6368 12.7459 53.6368 10.9096L53.6355 10.9109Z" fill="white"/>
<path d="M57.9341 10.1862C57.9341 6.65876 59.7493 4.41453 62.441 4.41453C63.971 4.41453 65.1737 5.28186 65.7453 6.61652H65.8377V0.826416H68.4687V15.7954H65.8377V13.7465H65.7361C65.043 15.1842 63.9724 16 62.4529 16C59.7506 16 57.9354 13.7267 57.9354 10.1875L57.9341 10.1862ZM63.2674 13.7954C64.8371 13.7954 65.8272 12.3776 65.8272 10.1862C65.8272 7.99473 64.8384 6.58615 63.2674 6.58615C61.6965 6.58615 60.7077 7.99341 60.7077 10.1862C60.7077 12.3789 61.707 13.7954 63.2674 13.7954Z" fill="white"/>
<path d="M74.8199 13.7149H76.6655V15.7954H70.3843V13.7149H72.1995V6.69967H70.5176V4.61914H74.8199V13.7149ZM71.8628 1.54983C71.8628 0.693069 72.577 0 73.443 0C74.309 0 75.0034 0.693069 75.0034 1.54983C75.0034 2.4066 74.3209 3.08911 73.443 3.08911C72.5651 3.08911 71.8628 2.4066 71.8628 1.54983Z" fill="white"/>
<path d="M87.5156 7.98423L84.9863 8.52417C84.7209 7.2806 83.9975 6.54661 82.7631 6.54661C81.1724 6.54661 80.1625 7.88258 80.1625 10.2073C80.1625 12.5321 81.1816 13.8681 82.7724 13.8681C83.9143 13.8681 84.7301 13.2463 84.9651 12.0027H87.575C87.2793 14.511 85.6173 16.0001 82.7724 16.0001C79.509 16.0001 77.4087 13.7268 77.4087 10.2087C77.4087 6.6905 79.509 4.41724 82.7618 4.41724C85.4536 4.41724 87.1869 5.86542 87.513 7.98555L87.5156 7.98423Z" fill="white"/>
<path d="M92.9503 13.7149H94.7958V15.7954H88.5146V13.7149H90.3298V2.90562H88.648V0.826416H92.9503V13.7149Z" fill="white"/>
<path d="M95.397 10.2271C95.397 6.74986 97.5488 4.41455 100.74 4.41455C103.666 4.41455 105.961 6.34194 105.654 10.808H98.1494C98.3026 12.7855 99.3428 13.938 100.75 13.938C101.963 13.938 102.728 13.336 103.023 12.2957H105.685C105.4 14.1822 103.595 15.9974 100.75 15.9974C97.5184 15.9974 95.397 13.7439 95.397 10.2258V10.2271ZM103.023 9.01389C102.963 7.37165 102.126 6.38287 100.75 6.38287C99.496 6.38287 98.5072 7.1063 98.2115 9.01389H103.025H103.023Z" fill="white"/>
<path d="M14.9692 0.826416V15.7954H29.9382V0.826416H14.9692ZM22.4531 13.2502C19.7257 13.2502 17.5131 11.039 17.5131 8.31024C17.5131 5.58153 19.7244 3.37031 22.4531 3.37031C25.1818 3.37031 27.393 5.58153 27.393 8.31024C27.393 11.039 25.1818 13.2502 22.4531 13.2502Z" fill="white"/>
<path d="M7.48389 12.239C9.65366 12.239 11.4126 10.4801 11.4126 8.3103C11.4126 6.14054 9.65366 4.38159 7.48389 4.38159C5.31412 4.38159 3.55518 6.14054 3.55518 8.3103C3.55518 10.4801 5.31412 12.239 7.48389 12.239Z" fill="white"/>
</svg>
