<svg width="16" height="16" viewBox="0 0 16 16" fill="none" xmlns="http://www.w3.org/2000/svg">
<path d="M16 12H8V4H16V12ZM12 5.36035C10.542 5.36037 9.36035 6.54296 9.36035 8.00098C9.36051 9.45886 10.5421 10.6406 12 10.6406C13.4579 10.6406 14.6395 9.45887 14.6396 8.00098C14.6396 6.54294 13.458 5.36035 12 5.36035Z" fill="#5A5F6B"/>
<path d="M1.88007 8.00009C1.88007 6.82925 2.82922 5.8801 4.00006 5.8801C5.1709 5.8801 6.12006 6.82925 6.12006 8.00009C6.12006 9.17094 5.1709 10.1201 4.00006 10.1201C2.82922 10.1201 1.88007 9.17094 1.88007 8.00009Z" fill="#5A5F6B"/>
</svg>
