<svg width="16" height="16" viewBox="0 0 16 16" fill="none" xmlns="http://www.w3.org/2000/svg">
<path d="M6.9281 2.09833L7.33494 2.38899L6.83918 1.6063L6.9281 2.09833ZM7.46423 8.53583L7.11068 8.88938L7.11069 8.88939L7.46423 8.53583ZM13.9027 9.07001L14.3948 9.15876L13.6119 8.66329L13.9027 9.07001ZM12.2426 12.2429L12.5961 12.5964L12.5961 12.5964L12.2426 12.2429ZM3.7572 12.2429L3.40365 12.5964L3.40365 12.5964L3.7572 12.2429ZM3.7572 3.75751L3.40365 3.40395L3.40364 3.40397L3.7572 3.75751ZM6.9281 2.09833L6.52127 1.80766C4.98628 3.95615 5.18161 6.96031 7.11068 8.88938L7.46423 8.53583L7.81779 8.18227C6.24028 6.60477 6.07929 4.1465 7.33494 2.38899L6.9281 2.09833ZM7.46423 8.53583L7.11069 8.88939C9.04038 10.819 12.0451 11.013 14.1935 9.47673L13.9027 9.07001L13.6119 8.66329C11.8542 9.92011 9.39563 9.76003 7.81778 8.18226L7.46423 8.53583ZM13.9027 9.07001L13.4106 8.98126C13.2185 10.0467 12.7125 11.0658 11.889 11.8893L12.2426 12.2429L12.5961 12.5964C13.569 11.6235 14.1678 10.4174 14.3948 9.15876L13.9027 9.07001ZM12.2426 12.2429L11.889 11.8893C9.74111 14.037 6.25858 14.0371 4.11075 11.8893L3.7572 12.2429L3.40365 12.5964C5.94202 15.1348 10.0577 15.1347 12.5961 12.5964L12.2426 12.2429ZM3.7572 12.2429L4.11076 11.8893C1.96293 9.74148 1.963 6.25896 4.11077 4.11105L3.7572 3.75751L3.40364 3.40397C0.865405 5.94237 0.865278 10.058 3.40365 12.5964L3.7572 12.2429ZM3.7572 3.75751L4.11076 4.11106C4.93366 3.28815 5.95212 2.7828 7.01702 2.59036L6.9281 2.09833L6.83918 1.6063C5.58148 1.83358 4.37609 2.43151 3.40365 3.40395L3.7572 3.75751Z" fill="#5A5F6B"/>
</svg>
