<svg width="16" height="16" viewBox="0 0 16 16" fill="none" xmlns="http://www.w3.org/2000/svg">
<path d="M13.6569 5.34315C12.914 4.60028 12.0321 4.011 11.0615 3.60896C10.0909 3.20693 9.05057 3 8 3C6.94942 3 5.90913 3.20693 4.93853 3.60896C3.96792 4.011 3.08601 4.60028 2.34314 5.34315" stroke="#5A5F6B"/>
<path d="M12.2427 6.75736C11.6855 6.20021 11.0241 5.75825 10.2961 5.45672C9.56817 5.15519 8.78796 5 8.00003 5C7.2121 5 6.43188 5.15519 5.70393 5.45672C4.97597 5.75825 4.31454 6.20021 3.75739 6.75736" stroke="#5A5F6B"/>
<path d="M10.8284 8.17157C10.457 7.80014 10.016 7.5055 9.53073 7.30448C9.04543 7.10346 8.52529 7 8 7C7.47471 7 6.95457 7.10346 6.46926 7.30448C5.98396 7.5055 5.543 7.80014 5.17157 8.17157" stroke="#5A5F6B"/>
<circle cx="8" cy="12" r="1.5" stroke="#5A5F6B"/>
</svg>
