<svg width="16" height="16" viewBox="0 0 16 16" fill="none" xmlns="http://www.w3.org/2000/svg">
<circle cx="4" cy="4" r="1.5" stroke="#5A5F6B"/>
<circle cx="12" cy="12" r="1.5" stroke="#5A5F6B"/>
<circle cx="4" cy="12" r="1.5" stroke="#5A5F6B"/>
<path d="M4 5.5V10.5" stroke="#5A5F6B"/>
<path d="M12 7H12.5V6.79289L12.3536 6.64645L12 7ZM8 3V2.5H7.5V3H8ZM7.5 6V6.5H8.5V6H8H7.5ZM11 3.5H11.5V2.5H11V3V3.5ZM12 7H11.5V10.5H12H12.5V7H12ZM12 7L12.3536 6.64645L8.35355 2.64645L8 3L7.64645 3.35355L11.6464 7.35355L12 7ZM8 3H7.5V6H8H8.5V3H8ZM8 3V3.5H11V3V2.5H8V3Z" fill="#5A5F6B"/>
</svg>
