<svg width="16" height="16" viewBox="0 0 16 16" fill="none" xmlns="http://www.w3.org/2000/svg">
<path d="M7 14V11M12 6L7 11M7 11L5 9" stroke="#5A5F6B"/>
<mask id="path-2-inside-1_10016_2178" fill="white">
<path d="M15 6.5C15 8.433 13.433 10 11.5 10C9.567 10 8 8.433 8 6.5C8 4.567 9.567 3 11.5 3H15V6.5Z"/>
</mask>
<path d="M15 6.5C15 8.433 13.433 10 11.5 10C9.567 10 8 8.433 8 6.5C8 4.567 9.567 3 11.5 3H15V6.5Z" fill="#5A5F6B"/>
<path d="M15 3H16V2H15V3ZM15 6.5H14C14 7.88071 12.8807 9 11.5 9V10V11C13.9853 11 16 8.98528 16 6.5H15ZM11.5 10V9C10.1193 9 9 7.88071 9 6.5H8H7C7 8.98528 9.01472 11 11.5 11V10ZM8 6.5H9C9 5.11929 10.1193 4 11.5 4V3V2C9.01472 2 7 4.01472 7 6.5H8ZM11.5 3V4H15V3V2H11.5V3ZM15 3H14V6.5H15H16V3H15Z" fill="#5A5F6B" mask="url(#path-2-inside-1_10016_2178)"/>
<mask id="path-4-inside-2_10016_2178" fill="white">
<path d="M3.5 5C4.88071 5 6 6.11929 6 7.5C6 8.88071 4.88071 10 3.5 10C2.11929 10 1 8.88071 1 7.5C1 6.11929 2.11929 5 3.5 5Z"/>
</mask>
<path d="M3.5 5C4.88071 5 6 6.11929 6 7.5C6 8.88071 4.88071 10 3.5 10C2.11929 10 1 8.88071 1 7.5C1 6.11929 2.11929 5 3.5 5Z" fill="#5A5F6B"/>
<path d="M3.5 5V6C4.32843 6 5 6.67157 5 7.5H6H7C7 5.567 5.433 4 3.5 4V5ZM6 7.5H5C5 8.32843 4.32843 9 3.5 9V10V11C5.433 11 7 9.433 7 7.5H6ZM3.5 10V9C2.67157 9 2 8.32843 2 7.5H1H0C0 9.433 1.567 11 3.5 11V10ZM1 7.5H2C2 6.67157 2.67157 6 3.5 6V5V4C1.567 4 0 5.567 0 7.5H1Z" fill="#5A5F6B" mask="url(#path-4-inside-2_10016_2178)"/>
</svg>
