<svg width="16" height="16" viewBox="0 0 16 16" fill="none" xmlns="http://www.w3.org/2000/svg">
<path d="M12 10C12.2761 10 12.5 10.2239 12.5 10.5C12.5 10.7761 12.2761 11 12 11C11.7239 11 11.5 10.7761 11.5 10.5C11.5 10.2239 11.7239 10 12 10Z" fill="black" stroke="#5A5F6B"/>
<path d="M8 3.5C8.27614 3.5 8.5 3.72386 8.5 4C8.5 4.27614 8.27614 4.5 8 4.5C7.72386 4.5 7.5 4.27614 7.5 4C7.5 3.72386 7.72386 3.5 8 3.5Z" fill="black" stroke="#5A5F6B"/>
<path d="M4 10C4.27614 10 4.5 10.2239 4.5 10.5C4.5 10.7761 4.27614 11 4 11C3.72386 11 3.5 10.7761 3.5 10.5C3.5 10.2239 3.72386 10 4 10Z" fill="black" stroke="#5A5F6B"/>
<path d="M2 9C1.67682 9.43091 1.50001 9.96479 1.5 10.5C1.49999 11.8425 2.64457 13 4 13C5.3604 13 6.5 11.8477 6.5 10.5H12" stroke="#5A5F6B"/>
<path d="M10.2913 3.00001C9.8981 2.10153 8.98314 1.50184 8 1.5022C6.65836 1.50269 5.50119 2.64652 5.5 4C5.49926 4.84912 5.96212 5.68151 6.6875 6.12939L4 10.5" stroke="#5A5F6B"/>
<path d="M12 13C13.3482 12.9986 14.4974 11.8606 14.4974 10.5C14.4974 9.15753 13.3548 8.00143 12 8C11.5396 7.99952 11.0813 8.12839 10.6875 8.37062L8 4" stroke="#5A5F6B"/>
</svg>
